<svg xmlns="http://www.w3.org/2000/svg">
    <symbol id="icon-calc" viewBox="0 0 16 16">
        <path d="M12 1a1 1 0 0 1 1 1v12a1 1 0 0 1-1 1H4a1 1 0 0 1-1-1V2a1 1 0 0 1 1-1h8zM4 0a2 2 0 0 0-2 2v12a2 2 0 0 0 2 2h8a2 2 0 0 0 2-2V2a2 2 0 0 0-2-2H4z" />
        <path d="M4 2.5a.5.5 0 0 1 .5-.5h7a.5.5 0 0 1 .5.5v2a.5.5 0 0 1-.5.5h-7a.5.5 0 0 1-.5-.5v-2zm0 4a.5.5 0 0 1 .5-.5h1a.5.5 0 0 1 .5.5v1a.5.5 0 0 1-.5.5h-1a.5.5 0 0 1-.5-.5v-1zm0 3a.5.5 0 0 1 .5-.5h1a.5.5 0 0 1 .5.5v1a.5.5 0 0 1-.5.5h-1a.5.5 0 0 1-.5-.5v-1zm0 3a.5.5 0 0 1 .5-.5h1a.5.5 0 0 1 .5.5v1a.5.5 0 0 1-.5.5h-1a.5.5 0 0 1-.5-.5v-1zm3-6a.5.5 0 0 1 .5-.5h1a.5.5 0 0 1 .5.5v1a.5.5 0 0 1-.5.5h-1a.5.5 0 0 1-.5-.5v-1zm0 3a.5.5 0 0 1 .5-.5h1a.5.5 0 0 1 .5.5v1a.5.5 0 0 1-.5.5h-1a.5.5 0 0 1-.5-.5v-1zm0 3a.5.5 0 0 1 .5-.5h1a.5.5 0 0 1 .5.5v1a.5.5 0 0 1-.5.5h-1a.5.5 0 0 1-.5-.5v-1zm3-6a.5.5 0 0 1 .5-.5h1a.5.5 0 0 1 .5.5v1a.5.5 0 0 1-.5.5h-1a.5.5 0 0 1-.5-.5v-1zm0 3a.5.5 0 0 1 .5-.5h1a.5.5 0 0 1 .5.5v4a.5.5 0 0 1-.5.5h-1a.5.5 0 0 1-.5-.5v-4z" />
    </symbol>
    <symbol id="icon-currency" viewBox="0 0 16 16">
        <path d="M0 5a5.002 5.002 0 0 0 4.027 4.905 6.46 6.46 0 0 1 .544-2.073C3.695 7.536 3.132 6.864 3 5.91h-.5v-.426h.466V5.05c0-.046 0-.093.004-.135H2.5v-.427h.511C3.236 3.24 4.213 2.5 5.681 2.5c.316 0 .59.031.819.085v.733a3.46 3.46 0 0 0-.815-.082c-.919 0-1.538.466-1.734 1.252h1.917v.427h-1.98c-.003.046-.003.097-.003.147v.422h1.983v.427H3.93c.118.602.468 1.03 1.005 1.229a6.5 6.5 0 0 1 4.97-3.113A5.002 5.002 0 0 0 0 5zm16 5.5a5.5 5.5 0 1 1-11 0 5.5 5.5 0 0 1 11 0zm-7.75 1.322c.069.835.746 1.485 1.964 1.562V14h.54v-.62c1.259-.086 1.996-.74 1.996-1.69 0-.865-.563-1.31-1.57-1.54l-.426-.1V8.374c.54.06.884.347.966.745h.948c-.07-.804-.779-1.433-1.914-1.502V7h-.54v.629c-1.076.103-1.808.732-1.808 1.622 0 .787.544 1.288 1.45 1.493l.358.085v1.78c-.554-.08-.92-.376-1.003-.787H8.25zm1.96-1.895c-.532-.12-.82-.364-.82-.732 0-.41.311-.719.824-.809v1.54h-.005zm.622 1.044c.645.145.943.38.943.796 0 .474-.37.8-1.02.86v-1.674l.077.018z" />
    </symbol>
    <symbol id="icon-lenght" viewBox="0 0 16 16">
        <path d="M4.5 1a.5.5 0 0 1 .5.5V2h6v-.5a.5.5 0 0 1 1 0v14a.5.5 0 0 1-1 0V15H5v.5a.5.5 0 0 1-1 0v-14a.5.5 0 0 1 .5-.5zM5 14h6v-2H5v2zm0-3h6V9H5v2zm0-3h6V6H5v2zm0-3h6V3H5v2z" />
    </symbol>
    <symbol id="icon-mass" viewBox="0 0 20 20">
        <path fill-rule="evenodd" d="M4 7v7.5c0 .864.642 1.5 1.357 1.5h9.286c.715 0 1.357-.636 1.357-1.5V7h1v7.5c0 1.345-1.021 2.5-2.357 2.5H5.357C4.021 17 3 15.845 3 14.5V7h1z" />
        <path fill-rule="evenodd" d="M7.5 9.5A.5.5 0 018 9h4a.5.5 0 010 1H8a.5.5 0 01-.5-.5zM17 4H3v2h14V4zM3 3a1 1 0 00-1 1v2a1 1 0 001 1h14a1 1 0 001-1V4a1 1 0 00-1-1H3z" />
    </symbol>
    <symbol id="icon-temperature" viewBox="0 0 16 16">
        <path d="M9.5 12.5a1.5 1.5 0 1 1-2-1.415V6.5a.5.5 0 0 1 1 0v4.585a1.5 1.5 0 0 1 1 1.415z"/>
        <path d="M5.5 2.5a2.5 2.5 0 0 1 5 0v7.55a3.5 3.5 0 1 1-5 0V2.5zM8 1a1.5 1.5 0 0 0-1.5 1.5v7.987l-.167.15a2.5 2.5 0 1 0 3.333 0l-.166-.15V2.5A1.5 1.5 0 0 0 8 1z" />
    </symbol>
    <symbol id="icon-volume" viewBox="0 0 20 20">
        <path fill-rule="evenodd" d="M10 3.5A4.5 4.5 0 005.5 8h-1a5.5 5.5 0 1111 0h-1A4.5 4.5 0 0010 3.5z" />
        <path fill-rule="evenodd" d="M3.61 7.687A.5.5 0 014 7.5h12a.5.5 0 01.488.608l-1.826 8.217a1.5 1.5 0 01-1.464 1.175H6.802a1.5 1.5 0 01-1.464-1.175L3.512 8.108a.5.5 0 01.098-.42zm1.013.813l1.691 7.608a.5.5 0 00.488.392h6.396a.5.5 0 00.488-.392l1.69-7.608H4.624z" />
    </symbol>
    <symbol id="icon-area" viewBox="0 0 16 16">
        <path d="M1.5 1a.5.5 0 0 0-.5.5v4a.5.5 0 0 1-1 0v-4A1.5 1.5 0 0 1 1.5 0h4a.5.5 0 0 1 0 1h-4zM10 .5a.5.5 0 0 1 .5-.5h4A1.5 1.5 0 0 1 16 1.5v4a.5.5 0 0 1-1 0v-4a.5.5 0 0 0-.5-.5h-4a.5.5 0 0 1-.5-.5zM.5 10a.5.5 0 0 1 .5.5v4a.5.5 0 0 0 .5.5h4a.5.5 0 0 1 0 1h-4A1.5 1.5 0 0 1 0 14.5v-4a.5.5 0 0 1 .5-.5zm15 0a.5.5 0 0 1 .5.5v4a1.5 1.5 0 0 1-1.5 1.5h-4a.5.5 0 0 1 0-1h4a.5.5 0 0 0 .5-.5v-4a.5.5 0 0 1 .5-.5z" />
    </symbol>
    <symbol id="icon-speed" viewBox="0 0 16 16">
        <path d="M8 2a.5.5 0 0 1 .5.5V4a.5.5 0 0 1-1 0V2.5A.5.5 0 0 1 8 2zM3.732 3.732a.5.5 0 0 1 .707 0l.915.914a.5.5 0 1 1-.708.708l-.914-.915a.5.5 0 0 1 0-.707zM2 8a.5.5 0 0 1 .5-.5h1.586a.5.5 0 0 1 0 1H2.5A.5.5 0 0 1 2 8zm9.5 0a.5.5 0 0 1 .5-.5h1.5a.5.5 0 0 1 0 1H12a.5.5 0 0 1-.5-.5zm.754-4.246a.389.389 0 0 0-.527-.02L7.547 7.31A.91.91 0 1 0 8.85 8.569l3.434-4.297a.389.389 0 0 0-.029-.518z" />
        <path fill-rule="evenodd" d="M6.664 15.889A8 8 0 1 1 9.336.11a8 8 0 0 1-2.672 15.78zm-4.665-4.283A11.945 11.945 0 0 1 8 10c2.186 0 4.236.585 6.001 1.606a7 7 0 1 0-12.002 0z" />
    </symbol>
    <symbol id="icon-time" viewBox="0 0 20 20">
        <path fill-rule="evenodd" d="M10 17a6 6 0 100-12 6 6 0 000 12zm0 1a7 7 0 100-14 7 7 0 000 14z"/>
        <path fill-rule="evenodd" d="M10 6.5a.5.5 0 01.5.5v4a.5.5 0 01-.053.224l-1.5 3a.5.5 0 11-.894-.448L9.5 10.882V7a.5.5 0 01.5-.5z" />
        <path d="M2.86 7.387A2.5 2.5 0 116.387 3.86 8.035 8.035 0 002.86 7.387zM13.613 3.86a2.5 2.5 0 113.527 3.527 8.035 8.035 0 00-3.527-3.527z" />
        <path fill-rule="evenodd" d="M13.646 16.146a.5.5 0 01.708 0l1 1a.5.5 0 01-.708.708l-1-1a.5.5 0 010-.708zm-7.292 0a.5.5 0 00-.708 0l-1 1a.5.5 0 00.708.708l1-1a.5.5 0 000-.708zM7.5 2.5A.5.5 0 018 2h4a.5.5 0 010 1H8a.5.5 0 01-.5-.5z" />
        <path d="M9 3h2v2H9V3z"/>
    </symbol>
    <symbol id="icon-age" viewBox="0 0 20 20">
        <path fill-rule="evenodd" d="M10 17a7 7 0 100-14 7 7 0 000 14zm8-7a8 8 0 11-16 0 8 8 0 0116 0z" />
        <path fill-rule="evenodd" d="M10 4a.5.5 0 01.5.5V10a.5.5 0 01-.5.5H5.5a.5.5 0 010-1h4v-5A.5.5 0 0110 4z" />
    </symbol>
    
    <symbol id="icon-menu" viewBox="0 0 16 16">
        <path fill-rule="evenodd" d="M2.5 12a.5.5 0 0 1 .5-.5h10a.5.5 0 0 1 0 1H3a.5.5 0 0 1-.5-.5zm0-4a.5.5 0 0 1 .5-.5h10a.5.5 0 0 1 0 1H3a.5.5 0 0 1-.5-.5zm0-4a.5.5 0 0 1 .5-.5h10a.5.5 0 0 1 0 1H3a.5.5 0 0 1-.5-.5z" />
    </symbol>
    <symbol id="icon-swap" viewBox="0 0 20 20">
        <path fill-rule="evenodd" d="M13 5.5a.5.5 0 01.5.5v9a.5.5 0 01-1 0V6a.5.5 0 01.5-.5z" />
        <path fill-rule="evenodd" d="M12.646 4.646a.5.5 0 01.708 0l3 3a.5.5 0 01-.708.708L13 5.707l-2.646 2.647a.5.5 0 01-.708-.708l3-3zm-9 7a.5.5 0 01.708 0L7 14.293l2.646-2.647a.5.5 0 01.708.708l-3 3a.5.5 0 01-.708 0l-3-3a.5.5 0 010-.708z" />
        <path fill-rule="evenodd" d="M7 4.5a.5.5 0 01.5.5v9a.5.5 0 01-1 0V5a.5.5 0 01.5-.5z" />
    </symbol>
</svg>
