<svg xmlns="http://www.w3.org/2000/svg">
    <symbol id="icon-calc" viewBox="0 0 16 16">
        <path d="M12 1a1 1 0 0 1 1 1v12a1 1 0 0 1-1 1H4a1 1 0 0 1-1-1V2a1 1 0 0 1 1-1h8zM4 0a2 2 0 0 0-2 2v12a2 2 0 0 0 2 2h8a2 2 0 0 0 2-2V2a2 2 0 0 0-2-2H4z" />
        <path d="M4 2.5a.5.5 0 0 1 .5-.5h7a.5.5 0 0 1 .5.5v2a.5.5 0 0 1-.5.5h-7a.5.5 0 0 1-.5-.5v-2zm0 4a.5.5 0 0 1 .5-.5h1a.5.5 0 0 1 .5.5v1a.5.5 0 0 1-.5.5h-1a.5.5 0 0 1-.5-.5v-1zm0 3a.5.5 0 0 1 .5-.5h1a.5.5 0 0 1 .5.5v1a.5.5 0 0 1-.5.5h-1a.5.5 0 0 1-.5-.5v-1zm0 3a.5.5 0 0 1 .5-.5h1a.5.5 0 0 1 .5.5v1a.5.5 0 0 1-.5.5h-1a.5.5 0 0 1-.5-.5v-1zm3-6a.5.5 0 0 1 .5-.5h1a.5.5 0 0 1 .5.5v1a.5.5 0 0 1-.5.5h-1a.5.5 0 0 1-.5-.5v-1zm0 3a.5.5 0 0 1 .5-.5h1a.5.5 0 0 1 .5.5v1a.5.5 0 0 1-.5.5h-1a.5.5 0 0 1-.5-.5v-1zm0 3a.5.5 0 0 1 .5-.5h1a.5.5 0 0 1 .5.5v1a.5.5 0 0 1-.5.5h-1a.5.5 0 0 1-.5-.5v-1zm3-6a.5.5 0 0 1 .5-.5h1a.5.5 0 0 1 .5.5v1a.5.5 0 0 1-.5.5h-1a.5.5 0 0 1-.5-.5v-1zm0 3a.5.5 0 0 1 .5-.5h1a.5.5 0 0 1 .5.5v4a.5.5 0 0 1-.5.5h-1a.5.5 0 0 1-.5-.5v-4z" />
    </symbol>
    <symbol id="icon-currency" viewBox="0 0 16 16">
        <path d="M0 5a5.002 5.002 0 0 0 4.027 4.905 6.46 6.46 0 0 1 .544-2.073C3.695 7.536 3.132 6.864 3 5.91h-.5v-.426h.466V5.05c0-.046 0-.093.004-.135H2.5v-.427h.511C3.236 3.24 4.213 2.5 5.681 2.5c.316 0 .59.031.819.085v.733a3.46 3.46 0 0 0-.815-.082c-.919 0-1.538.466-1.734 1.252h1.917v.427h-1.98c-.003.046-.003.097-.003.147v.422h1.983v.427H3.93c.118.602.468 1.03 1.005 1.229a6.5 6.5 0 0 1 4.97-3.113A5.002 5.002 0 0 0 0 5zm16 5.5a5.5 5.5 0 1 1-11 0 5.5 5.5 0 0 1 11 0zm-7.75 1.322c.069.835.746 1.485 1.964 1.562V14h.54v-.62c1.259-.086 1.996-.74 1.996-1.69 0-.865-.563-1.31-1.57-1.54l-.426-.1V8.374c.54.06.884.347.966.745h.948c-.07-.804-.779-1.433-1.914-1.502V7h-.54v.629c-1.076.103-1.808.732-1.808 1.622 0 .787.544 1.288 1.45 1.493l.358.085v1.78c-.554-.08-.92-.376-1.003-.787H8.25zm1.96-1.895c-.532-.12-.82-.364-.82-.732 0-.41.311-.719.824-.809v1.54h-.005zm.622 1.044c.645.145.943.38.943.796 0 .474-.37.8-1.02.86v-1.674l.077.018z" />
    </symbol>
    <symbol id="icon-temperature" viewBox="0 0 16 16">
        <path d="M9.5 12.5a1.5 1.5 0 1 1-2-1.415V6.5a.5.5 0 0 1 1 0v4.585a1.5 1.5 0 0 1 1 1.415z"/>
        <path d="M5.5 2.5a2.5 2.5 0 0 1 5 0v7.55a3.5 3.5 0 1 1-5 0V2.5zM8 1a1.5 1.5 0 0 0-1.5 1.5v7.987l-.167.15a2.5 2.5 0 1 0 3.333 0l-.166-.15V2.5A1.5 1.5 0 0 0 8 1z" />
    </symbol>
    <symbol id="icon-lenght" viewBox="-2 -2 24 24">
       <path d="M14.95 7.879l-.707-.707a1 1 0 0 1 1.414-1.415l.707.707 1.414-1.414-2.828-2.828L2.222 14.95l2.828 2.828 1.414-1.414L5.05 14.95a1 1 0 0 1 1.414-1.414L7.88 14.95l1.414-1.414-.707-.708A1 1 0 0 1 10 11.414l.707.707 1.414-1.414-1.414-1.414a1 1 0 0 1 1.414-1.414l1.415 1.414 1.414-1.414zM.808 13.536L13.536.808a2 2 0 0 1 2.828 0l2.828 2.828a2 2 0 0 1 0 2.828L6.464 19.192a2 2 0 0 1-2.828 0L.808 16.364a2 2 0 0 1 0-2.828z"/>
    </symbol>
    <symbol id="icon-mass" viewBox="0 0 20 20">
       <path d="M15.81 10l-2.5-5h0.69c0.276 0 0.5-0.224 0.5-0.5s-0.224-0.5-0.5-0.5h-0.79c-1.056-1.145-2.541-1.881-4.198-1.95l-0.012-0.050c0-0.552-0.448-1-1-1s-1 0.448-1 1v0.050c-1.681 0.073-3.178 0.807-4.247 1.947l-0.753 0.003c-0.276 0-0.5 0.224-0.5 0.5s0.224 0.5 0.5 0.5h0.69l-2.5 5h-0.19c0 1.1 1.34 2 3 2s3-0.9 3-2h-0.19l-2.55-5.090c0.064-0.039 0.118-0.089 0.159-0.148 0.873-1.019 2.148-1.669 3.575-1.702l0.006 10.94h-1v1h-2v1h8v-1h-2v-1h-1v-10.94c1.418 0.030 2.679 0.682 3.524 1.693 0.053 0.084 0.117 0.145 0.193 0.186l-2.527 5.061h-0.19c0 1.1 1.34 2 3 2s3-0.9 3-2h-0.19zM5 10h-4l2-3.94zM11 10l2-3.94 2 3.94h-4z" />
       </symbol>
    <symbol id="icon-volume" viewBox="0 0 36 36">
       <path d="M25.88,32H12a4,4,0,0,1-4-4V11.46L2.31,5.77a1,1,0,0,1-.22-1.09A1,1,0,0,1,3,4.06H28.86a1,1,0,0,1,1,1V28A4,4,0,0,1,25.88,32ZM5.43,6l4.28,4.34a.75.75,0,0,1,.21.63v17A2.13,2.13,0,0,0,12,30H25.88A2.1,2.1,0,0,0,28,28V6Z" /><path d="M33,16a1,1,0,0,1-1-1V6H28.86a.92.92,0,0,1-1-.9,1,1,0,0,1,1-1H33a1,1,0,0,1,1,1V15A1,1,0,0,1,33,16Z"/><path d="M24,11H18a1,1,0,1,1,0-2H24a1,1,0,1,1,0,2Z" /><path d="M24,15H21a1,1,0,1,1,0-2H24a1,1,0,1,1,0,2Z" /><path d="M24,19H18a1,1,0,1,1,0-2H24a1,1,0,1,1,0,2Z" /><path d="M24,27H18a1,1,0,1,1,0-2H24a1,1,0,1,1,0,2Z" /><path d="M24,23H21A1,1,0,1,1,21,21H24A1,1,0,1,1,24,23Z" />
    </symbol>
    <symbol id="icon-area" viewBox="0 0 16 16">
        <path d="M4,12L4,13L12,13L12,12L13,12L13,4L12,4L12,3L4,3L4,4L3,4L3,12L4,12ZM7,7L9,7L9,9L7,9L7,7ZM16,12L16,16L12,16L12,15L4,15L4,16L0,16L0,12L1,12L1,4L0,4L0,0L4,0L4,1L12,1L12,0L16,0L16,4L15,4L15,12L16,12Z" />
    </symbol>
    <symbol id="icon-speed" viewBox="0 0 16 16">
        <path d="M8 2a.5.5 0 0 1 .5.5V4a.5.5 0 0 1-1 0V2.5A.5.5 0 0 1 8 2zM3.732 3.732a.5.5 0 0 1 .707 0l.915.914a.5.5 0 1 1-.708.708l-.914-.915a.5.5 0 0 1 0-.707zM2 8a.5.5 0 0 1 .5-.5h1.586a.5.5 0 0 1 0 1H2.5A.5.5 0 0 1 2 8zm9.5 0a.5.5 0 0 1 .5-.5h1.5a.5.5 0 0 1 0 1H12a.5.5 0 0 1-.5-.5zm.754-4.246a.389.389 0 0 0-.527-.02L7.547 7.31A.91.91 0 1 0 8.85 8.569l3.434-4.297a.389.389 0 0 0-.029-.518z" />
        <path fill-rule="evenodd" d="M6.664 15.889A8 8 0 1 1 9.336.11a8 8 0 0 1-2.672 15.78zm-4.665-4.283A11.945 11.945 0 0 1 8 10c2.186 0 4.236.585 6.001 1.606a7 7 0 1 0-12.002 0z" />
    </symbol>
    <symbol id="icon-time" viewBox="0 0 24 24">
        <path fill-rule="evenodd" d="M12,23 C5.92486775,23 1,18.0751322 1,12 C1,5.92486775 5.92486775,1 12,1 C18.0751322,1 23,5.92486775 23,12 C23,18.0751322 18.0751322,23 12,23 Z M12,21 C16.9705627,21 21,16.9705627 21,12 C21,7.02943725 16.9705627,3 12,3 C7.02943725,3 3,7.02943725 3,12 C3,16.9705627 7.02943725,21 12,21 Z M13,11 L17,11 L17,13 L11,13 L11,6 L13,6 L13,11 Z"/>
    </symbol>
    <symbol id="icon-age" viewBox="0 0 20 20">
        <path d="M12,3s-2,2.34-2,4a2,2,0,0,0,4,0C14,5.34,12,3,12,3Zm0,6v4" /><path d="M20,21H4V14a1,1,0,0,1,1-1H19a1,1,0,0,1,1,1ZM3,21H21" />
    </symbol>
    
    <symbol id="icon-menu" viewBox="0 0 16 16">
        <path fill-rule="evenodd" d="M2.5 12a.5.5 0 0 1 .5-.5h10a.5.5 0 0 1 0 1H3a.5.5 0 0 1-.5-.5zm0-4a.5.5 0 0 1 .5-.5h10a.5.5 0 0 1 0 1H3a.5.5 0 0 1-.5-.5zm0-4a.5.5 0 0 1 .5-.5h10a.5.5 0 0 1 0 1H3a.5.5 0 0 1-.5-.5z" />
    </symbol>
    <symbol id="icon-swap" viewBox="0 0 20 20">
        <path fill-rule="evenodd" d="M13 5.5a.5.5 0 01.5.5v9a.5.5 0 01-1 0V6a.5.5 0 01.5-.5z" />
        <path fill-rule="evenodd" d="M12.646 4.646a.5.5 0 01.708 0l3 3a.5.5 0 01-.708.708L13 5.707l-2.646 2.647a.5.5 0 01-.708-.708l3-3zm-9 7a.5.5 0 01.708 0L7 14.293l2.646-2.647a.5.5 0 01.708.708l-3 3a.5.5 0 01-.708 0l-3-3a.5.5 0 010-.708z" />
        <path fill-rule="evenodd" d="M7 4.5a.5.5 0 01.5.5v9a.5.5 0 01-1 0V5a.5.5 0 01.5-.5z" />
    </symbol>
    <symbol id="icon-arrow" viewBox="0 0 24 24">
        <path d="M7.41 8.59L12 13.17l4.59-4.58L18 10l-6 6-6-6 1.41-1.41z"/>
    </symbol>
</svg>
